<svg width="11" height="6" viewBox="0 0 11 6" fill="none" xmlns="http://www.w3.org/2000/svg">
<path opacity="0.8" d="M5.07793 5.69435L0.83418 1.4506C0.732096 1.34851 0.681055 1.22456 0.681055 1.07872C0.681055 0.93289 0.732096 0.808932 0.83418 0.706848L1.31543 0.225598C1.41751 0.123515 1.54147 0.0724733 1.6873 0.0724733C1.83314 0.0578899 1.9571 0.10164 2.05918 0.203723L5.4498 3.59435L8.84043 0.203723C8.94251 0.10164 9.06647 0.0578899 9.2123 0.0724733C9.35814 0.0724733 9.4821 0.123515 9.58418 0.225598L10.0654 0.706848C10.1675 0.808932 10.2186 0.93289 10.2186 1.07872C10.2186 1.22456 10.1675 1.34851 10.0654 1.4506L5.82168 5.69435C5.7196 5.81101 5.59564 5.86935 5.4498 5.86935C5.30397 5.86935 5.18001 5.81101 5.07793 5.69435Z" fill="black"/>
</svg>
